#!OML:ASF F:\twosubjects\two\Thursday\Session 1\Rory.ASF
:FULLY-SPECIFIED
:DEGREES
209
root 1.26653 18.6142 14.595 1.77317 18.4258 0.132643
lowerback 3.3235 2.63267 0.398392
upperback 1.46962 3.52204 -0.0521518
thorax -0.326208 1.76352 -0.399745
lowerneck 4.59153 20.832 13.9103
upperneck 7.43917 30.9358 -21.1021
head 7.06804 15.2191 -5.87708
rclavicle 2.31336e-014 3.47873e-015
rhumerus -42.0962 -23.7821 -67.3646
rradius 29.7733
rwrist 22.5024
rhand -18.9648 24.443
rfingers 7.12502
rthumb 7.33916 -5.40966
lclavicle 2.31336e-014 3.47873e-015
lhumerus -30.5387 12.7284 82.6913
lradius 29.9791
lwrist -21.0617
lhand -10.6925 31.0817
lfingers 7.12502
lthumb 15.3167 60.4945
rfemur -21.1648 4.04144 21.9092
rtibia 29.2324
rfoot -7.75086 -4.89451
rtoes 9.74848
lfemur 1.87599 -2.50962 -17.3324
ltibia 41.5262
lfoot 20.2909 -13.2588
ltoes -5.10551
210
root 1.28146 18.61 14.7649 1.40886 18.5208 -0.095842
lowerback 3.15369 2.65937 0.34434
upperback 1.73802 3.55653 0.167288
thorax 0.0266798 1.78134 -0.129714
lowerneck 4.41824 20.7827 14.1528
upperneck 7.37301 30.9314 -21.5324
head 7.19103 15.2025 -5.99721
rclavicle -4.50993e-014 7.15625e-015
rhumerus -41.82 -24.1757 -67.0618
rradius 29.596
rwrist 22.5251
rhand -19.2041 23.9469
rfingers 7.12502
rthumb 7.10814 -5.91378
lclavicle -4.50993e-014 7.15625e-015
lhumerus -30.0783 13.4134 82.88
lradius 29.3868
lwrist -21.3074
lhand -10.6767 30.6216
lfingers 7.12502
lthumb 15.3319 60.0332
rfemur -20.2508 4.19644 22.3286
rtibia 29.3142
rfoot -8.34222 -5.07598
rtoes 9.77685
lfemur 0.63927 -2.50131 -16.8563
ltibia 44.1676
lfoot 20.9189 -13.5102
ltoes -6.78333
211
root 1.31293 18.6133 14.9366 1.0571 18.8749 -0.0570057
lowerback 3.05612 2.6472 0.263103
upperback 2.00071 3.53821 0.299317
thorax 0.337031 1.77205 0.0639794
lowerneck 4.2111 20.6942 14.3885
upperneck 7.42097 30.8785 -21.8696
head 7.32999 15.1576 -6.09528
rclavicle -4.02787e-014 4.17448e-015
rhumerus -41.7162 -24.584 -66.596
rradius 29.4084
rwrist 22.7367
rhand -19.381 24.1018
rfingers 7.12502
rthumb 6.93734 -5.76455
lclavicle -4.02787e-014 4.17448e-015
lhumerus -29.6551 13.565 83.2782
lradius 28.7989
lwrist -21.3057
lhand -10.4695 30.4157
lfingers 7.12502
lthumb 15.5315 59.8119
rfemur -19.1273 3.81777 22.4428
rtibia 29.2751
rfoot -9.07643 -5.06338
rtoes 10.625
lfemur -0.42897 -2.69984 -16.7712
ltibia 46.6012
lfoot 20.818 -13.4676
ltoes -8.30645
212
root 1.35326 18.6326 15.0682 1.39561 19.5924 0.473207
lowerback 3.2906 2.50768 0.120321
upperback 1.72935 3.34871 0.109179
thorax -0.0689555 1.67625 -0.0652048
lowerneck 4.28868 20.5794 14.5665
upperneck 7.46093 30.716 -21.7325
head 7.30211 15.0921 -6.11515
rclavicle 4.3012e-014 -4.17448e-015
rhumerus -42.0051 -24.5818 -66.295
rradius 29.2567
rwrist 22.644
rhand -19.6015 24.1927
rfingers 7.12502
rthumb 6.72455 -5.68056
lclavicle 4.3012e-014 -4.17448e-015
lhumerus -29.8793 13.3639 83.4624
lradius 28.8395
lwrist -21.3321
lhand -10.0611 30.4983
lfingers 7.12502
lthumb 15.9248 59.8636
rfemur -18.7282 2.7938 21.9373
rtibia 29.3718
rfoot -9.74453 -4.7828
rtoes 11.3571
lfemur -2.14944 -3.31984 -17.3681
ltibia 48.7908
lfoot 19.9873 -13.2636
ltoes -11.037
213
root 1.34262 18.6381 15.2493 0.653592 19.5498 -0.442172
lowerback 3.60706 2.57041 0.420303
upperback 1.74111 3.44477 0.495995
thorax -0.239376 1.72442 0.144055
lowerneck 4.25146 20.5836 14.5333
upperneck 7.4887 30.6592 -21.3917
head 7.23865 15.0691 -6.02334
rclavicle 6.63444e-015 -3.97569e-015
rhumerus -41.9139 -24.2923 -66.2686
rradius 28.926
rwrist 22.4377
rhand -19.5728 24.0244
rfingers 7.12502
rthumb 6.75221 -5.84793
lclavicle 6.63444e-015 -3.97569e-015
lhumerus -30.236 13.2375 83.5732
lradius 29.2488
lwrist -21.5222
lhand -9.12275 31.2666
lfingers 7.12502
lthumb 16.8283 60.5574
rfemur -17.6187 4.13299 23.1731
rtibia 29.3433
rfoot -10.2653 -6.10464
rtoes 12.0078
lfemur -3.07508 -2.9969 -16.102
ltibia 50.9173
lfoot 18.8337 -12.8675
ltoes -12.5018
214
root 1.39535 18.6523 15.4022 0.86209 20.134 0.407043
lowerback 3.68065 2.47186 0.0760909
upperback 1.64822 3.30061 0.169004
thorax -0.375824 1.65145 0.00079731
lowerneck 4.24731 20.5127 14.6241
upperneck 7.53275 30.5334 -21.1788
head 7.20541 15.0144 -5.99618
rclavicle 1.20389e-014 -1.98785e-015
rhumerus -41.9861 -24.3662 -66.0285
rradius 28.6543
rwrist 22.5708
rhand -19.3396 24.2136
rfingers 7.12502
rthumb 6.97734 -5.65139
lclavicle 1.20389e-014 -1.98785e-015
lhumerus -30.4031 13.0913 83.6642
lradius 29.2751
lwrist -21.579
lhand -8.69612 31.2023
lfingers 7.12502
lthumb 17.2389 60.4576
rfemur -16.7312 2.99458 22.3089
rtibia 29.0434
rfoot -10.7498 -5.5873
rtoes 11.9179
lfemur -4.30416 -3.3984 -17.1601
ltibia 52.9509
lfoot 17.485 -11.2606
ltoes -12.1285
215
root 1.41342 18.6556 15.5551 0.707169 20.0256 0.387196
lowerback 3.85127 2.71956 0.209337
upperback 1.66348 3.63515 0.128228
thorax -0.444264 1.81929 -0.136462
lowerneck 4.20365 20.3269 14.6512
upperneck 7.39529 30.2393 -21.1787
head 7.11828 14.8794 -6.05749
rclavicle -5.98093e-014 6.75868e-015
rhumerus -42.1253 -24.7846 -65.6828
rradius 28.6831
rwrist 22.9815
rhand -18.9388 23.826
rfingers 7.12502
rthumb 7.36425 -6.02579
lclavicle -5.98093e-014 6.75868e-015
lhumerus -30.1227 12.8602 83.9528
lradius 29.0381
lwrist -21.5913
lhand -9.11806 30.147
lfingers 7.12502
lthumb 16.8328 59.4374
rfemur -15.8135 3.05455 22.5926
rtibia 28.5937
rfoot -11.0202 -5.93889
rtoes 8.64185
lfemur -5.65312 -3.01548 -17.0181
ltibia 55.0523
lfoot 15.8651 -9.93257
ltoes -12.2848
216
root 1.40462 18.6388 15.7219 -0.447959 19.6194 -1.20051
lowerback 4.04853 2.99029 1.33634
upperback 2.06302 4.03991 0.709423
thorax -0.106747 2.02867 -0.182035
lowerneck 3.92175 20.2273 14.5149
upperneck 7.25503 30.0828 -21.4139
head 7.11218 14.7844 -6.11301
rclavicle 4.9721e-014 3.97569e-016
rhumerus -41.5694 -25.1374 -65.5353
rradius 28.4015
rwrist 23.5776
rhand -18.8667 23.4638
rfingers 7.12502
rthumb 7.43386 -6.38558
lclavicle 4.9721e-014 3.97569e-016
lhumerus -29.6572 12.2996 84.5824
lradius 29.0247
lwrist -21.205
lhand -9.67056 29.623
lfingers 7.12502
lthumb 16.3009 58.9578
rfemur -14.3737 3.89634 24.7561
rtibia 28.2244
rfoot -11.1751 -7.25372
rtoes 2.21633
lfemur -6.47751 -2.20489 -14.9649
ltibia 57.0927
lfoot 13.7839 -9.16457
ltoes -12.4178
217
root 1.42856 18.6417 15.8656 -0.28402 19.6687 -0.745742
lowerback 4.01493 2.9749 0.933127
upperback 2.04341 4.00414 0.588355
thorax -0.127738 2.0083 -0.079527
lowerneck 3.94773 20.2285 14.707
upperneck 7.38234 30.1441 -21.5244
head 7.20944 14.8104 -6.14888
rclavicle -6.88292e-015 -1.78906e-015
rhumerus -41.0634 -24.9041 -65.7426
rradius 27.9346
rwrist 23.9693
rhand -19.2129 23.6111
rfingers 7.12502
rthumb 7.09968 -6.2498
lclavicle -6.88292e-015 -1.78906e-015
lhumerus -29.7561 11.93 84.7596
lradius 29.2034
lwrist -21.1256
lhand -9.09033 29.6467
lfingers 7.12502
lthumb 16.8595 58.9348
rfemur -13.5972 3.39783 24.4833
rtibia 27.7612
rfoot -11.1991 -7.30221
rtoes -0.498591
lfemur -7.93739 -2.02502 -15.4285
ltibia 58.8791
lfoot 11.5188 -7.77952
ltoes -12.0118
218
root 1.46215 18.6476 16.0108 0.0122713 19.6699 0.00486897
lowerback 4.19199 2.90227 0.348077
upperback 1.82943 3.88616 0.287243
thorax -0.464855 1.94526 -0.0751168
lowerneck 4.06383 20.3377 14.8874
upperneck 7.51318 30.2931 -21.2569
head 7.23941 14.8919 -6.0692
rclavicle -4.37699e-014 3.97569e-016
rhumerus -40.8342 -24.3954 -66.1204
rradius 27.6424
rwrist 24.2643
rhand -19.3001 23.7604
rfingers 7.12502
rthumb 7.01543 -6.10332
lclavicle -4.37699e-014 3.97569e-016
lhumerus -30.0802 11.6767 84.5879
lradius 29.4608
lwrist -21.2434
lhand -7.74915 30.0824
lfingers 7.12502
lthumb 18.1502 59.2555
rfemur -12.7872 2.82595 23.7692
rtibia 27.2147
rfoot -11.4016 -6.78327
rtoes -0.764202
lfemur -9.33325 -1.80767 -16.2904
ltibia 60.4368
lfoot 9.76591 -6.16275
ltoes -11.5934
219
root 1.47661 18.6441 16.175 -0.753015 19.2369 -0.86513
lowerback 4.34211 2.98768 0.921266
upperback 2.07244 4.02486 0.590823
thorax -0.280965 2.01809 -0.0893623
lowerneck 3.92925 20.4541 14.5912
upperneck 7.29446 30.3495 -21.0738
head 7.12281 14.917 -5.96909
rclavicle 1.83006e-014 -7.95139e-016
rhumerus -40.1296 -24.5406 -66.2561
rradius 27.1764
rwrist 25.2278
rhand -19.3023 24.0958
rfingers 7.12502
rthumb 7.0133 -5.76804
lclavicle 1.83006e-014 -7.95139e-016
lhumerus -29.8176 11.4351 84.7342
lradius 29.4402
lwrist -20.8011
lhand -8.55606 29.3977
lfingers 7.12502
lthumb 17.3737 58.6412
rfemur -11.6102 3.30648 24.8931
rtibia 27.1445
rfoot -11.9473 -6.86673
rtoes -1.95347
lfemur -10.0148 -1.18843 -15.2073
ltibia 61.6903
lfoot 8.60598 -4.79924
ltoes -9.62366
